PathFileType	4	(X/Y/Z)	markers.trc																																																																																																																																																																
DataRate	CameraRate	NumFrames	NumMarkers	Units	OrigDataRate	OrigDataStartFrame	OrigNumFrames																																																																																																																																																												
200	200	5	54	mm	200	1011	100																																																																																																																																																												
Frame#	Time	FHD			LBHD			RBHD			C7			T10			CLAV			LSHO			LUUPA			LMUPA			LDUPA			LLEP			LMEP			LRAD			LUL			LRFIN			RSHO			RUPA1			RMUPA			RDUPA			RLEP			RMEP			RRAD			RUL			RUFIN			RASI			USACR			LSACR			RSACR			LTHI1			LTHI2			LTHI3			LTHI4			LTIB1			LTIB2			LTIB3			LTIB4			LLMAL			LHEE			LMT1			LMT2			RTHI			RTHI2			RTHI3			RTHI4			RLFC			RTIB1			RTIB2			RTIB3			RTIB4			RLMAL			RHEE			RMT1			RMT2			RMT5		
		X1	Y1	Z1	X2	Y2	Z2	X3	Y3	Z3	X4	Y4	Z4	X5	Y5	Z5	X6	Y6	Z6	X7	Y7	Z7	X8	Y8	Z8	X9	Y9	Z9	X10	Y10	Z10	X11	Y11	Z11	X12	Y12	Z12	X13	Y13	Z13	X14	Y14	Z14	X15	Y15	Z15	X16	Y16	Z16	X17	Y17	Z17	X18	Y18	Z18	X19	Y19	Z19	X20	Y20	Z20	X21	Y21	Z21	X22	Y22	Z22	X23	Y23	Z23	X24	Y24	Z24	X25	Y25	Z25	X26	Y26	Z26	X27	Y27	Z27	X28	Y28	Z28	X29	Y29	Z29	X30	Y30	Z30	X31	Y31	Z31	X32	Y32	Z32	X33	Y33	Z33	X34	Y34	Z34	X35	Y35	Z35	X36	Y36	Z36	X37	Y37	Z37	X38	Y38	Z38	X39	Y39	Z39	X40	Y40	Z40	X41	Y41	Z41	X42	Y42	Z42	X43	Y43	Z43	X44	Y44	Z44	X45	Y45	Z45	X46	Y46	Z46	X47	Y47	Z47	X48	Y48	Z48	X49	Y49	Z49	X50	Y50	Z50	X51	Y51	Z51	X52	Y52	Z52	X53	Y53	Z53	X54	Y54	Z54
																																																																																																																																																																			
1011	5.05	-1775.053724	1527.355277	294.595745	-1945.066029	1557.173984	195.57727	-1916.984914	1538.856731	317.755104	-2011.040952	1431.283365	251.436783	-2220.736952	1162.551028	322.2202	-1928.468584	1292.634696	231.272374	-1961.853172	1355.837387	100.063942	-2058.922701	1193.910812	6.822193	-2025.086028	1160.601173	13.141068	-2072.724018	1127.949188	-5.540676	-2104.009183	1007.993312	-14.875509	-2128.879862	994.863801	51.892381	-1895.069497	901.264074	81.903148	-1916.446938	834.167562	57.972237	-1835.192083	898.695176	46.501266	-1918.710039	1355.404203	397.192182	-2025.836707	1252.486345	518.67192	-2024.259725	1205.671706	510.921781	-2069.667572	1210.805867	551.060815	-2161.837363	1120.17647	599.70972	-2199.657473	1111.730345	540.515021	-2103.181739	861.379811	592.552851	-2155.16857	860.271413	639.554356	-2062.620779	819.361834	651.126866	-2115.798005	921.042049	385.132884	-2269.366289	1079.577951	335.726435	-2292.59349	1054.983404	310.014848	-2274.366378	1046.340798	364.623652	-2206.521263	747.219445	80.621716	-2147.913322	685.505492	71.559491	-2103.370869	702.890982	79.960516	-2154.076284	624.876715	82.70507	-2090.228489	340.586537	138.971122	-2165.945671	315.488071	102.825929	-2128.534001	301.457066	121.489367	-2149.775785	231.059654	166.172433	-2254.537373	106.303753	182.08963	-2330.218425	74.788969	238.617055	-2107.894118	59.07945	238.383078	-2111.142633	53.590287	192.522483	-2152.068508	686.22636	462.479503	-2109.010011	636.625184	455.76941	-2077.966324	639.82881	441.420879	-2130.071546	555.208001	443.911497	-2118.146934	460.692917	417.948709	-2307.994694	427.917195	353.561312	-2379.58361	501.949741	388.59655	-2383.923675	460.164721	366.064942	-2429.937062	460.408425	331.863536	-2514.45018	530.443491	360.298667	-2547.260986	607.100902	313.495117	-2586.055637	384.511447	284.028768	-2586.665455	383.923727	326.890947	-2609.397748	425.802593	377.548166
1012	5.055	-1747.275818	1526.142474	293.949892	-1917.212477	1555.567573	194.620995	-1889.326252	1537.478721	316.842656	-1983.573487	1428.735137	250.525469	-2190.93441	1157.978875	322.960917	-1899.376887	1290.81085	231.021599	-1933.839606	1354.667551	100.272314	-2020.109488	1187.082134	8.390824	-1983.641906	1156.328205	14.828402	-2028.917958	1120.214521	-3.523146	-2049.95306	997.65939	-11.826451	-2074.250332	982.90748	54.784829	-1833.428534	912.996125	89.532595	-1847.844321	843.985181	66.045247	-1773.119597	915.818922	54.63907	-1891.593087	1354.641465	397.315045	-2002.460162	1256.428455	519.93808	-2002.0265	1209.293923	513.492647	-2047.869555	1216.816531	552.608541	-2142.437924	1129.778512	601.611981	-2181.722554	1123.72075	543.56245	-2103.662995	867.357963	596.383947	-2155.705838	870.724759	644.387874	-2065.825187	823.029101	654.74683	-2084.530856	916.486214	381.459896	-2239.102887	1075.806421	336.980266	-2262.68666	1051.416035	311.446766	-2243.616132	1042.349023	365.715809	-2184.114838	742.337825	81.189431	-2127.743245	678.69926	71.997893	-2082.533203	694.440065	79.935116	-2135.837734	618.395435	83.506394	-2081.363158	331.719828	140.676988	-2157.764764	309.24649	104.260819	-2120.953312	293.860395	123.240118	-2145.219573	224.766055	168.521685	-2254.74334	104.889569	183.996855	-2331.217287	73.681611	240.027064	-2108.739163	58.112463	239.629697	-2112.028941	53.146622	193.701972	-2110.069188	686.477207	460.443357	-2064.59988	639.380047	453.703673	-2033.970623	644.13085	438.736192	-2081.299986	557.03454	441.448744	-2064.597719	463.97219	415.273551	-2253.76168	428.419625	352.100151	-2326.215836	500.755113	388.130707	-2330.070516	459.21985	365.58012	-2376.412957	458.837011	331.822847	-2461.300367	527.137542	361.425528	-2498.246017	602.80116	315.159827	-2529.12864	378.983101	287.277408	-2528.470391	378.464623	329.906995	-2551.142883	419.560972	380.989487
1013	5.06	-1719.47949	1525.00468	293.445837	-1889.477824	1554.016229	193.998735	-1861.633269	1535.990436	316.193393	-1956.089874	1426.124481	249.70278	-2161.230967	1153.286389	323.554515	-1870.15831	1288.906754	231.049333	-1905.471036	1353.490014	100.655536	-1980.448668	1181.197891	9.996703	-1941.638787	1153.105826	16.691194	-1984.27731	1113.779243	-1.447981	-1994.903528	989.447544	-8.621595	-2018.488294	973.079124	57.789295	-1772.931378	927.498961	96.757521	-1780.235347	857.280772	73.721519	-1712.739732	935.788416	62.249681	-1864.511918	1354.020459	397.554401	-1979.028305	1260.764043	521.151044	-1979.712251	1213.322237	515.982422	-2025.985856	1223.289999	553.972401	-2122.83079	1139.898359	603.351196	-2163.337927	1136.338974	546.293275	-2102.883981	875.552712	599.32263	-2154.633564	882.970221	648.209313	-2067.687466	829.148021	657.348009	-2053.413413	911.908103	377.748856	-2208.92299	1071.985943	338.083301	-2232.868646	1047.715271	312.783963	-2212.885779	1038.358666	366.693017	-2162.011638	737.263414	81.891776	-2108.034864	671.664879	72.567304	-2062.179435	685.638103	79.797979	-2118.047807	611.781809	84.634797	-2072.753999	323.525245	142.353282	-2149.828431	303.665667	105.842865	-2113.608301	286.991893	124.98564	-2140.605821	219.213131	170.837376	-2254.715158	104.20125	185.899636	-2331.903772	73.479738	241.621162	-2109.294337	57.538041	240.637173	-2112.724045	53.027104	194.644179	-2068.118268	687.549976	458.307594	-2020.317637	643.161171	451.438655	-1990.218115	649.485695	435.872007	-2032.529083	560.121534	438.814174	-2011.036692	468.664533	412.367799	-2199.337083	428.974917	350.634954	-2273.048389	499.112325	387.774396	-2276.163338	457.818723	365.203281	-2322.830665	456.450548	331.928397	-2408.534887	522.371444	362.788473	-2450.003868	596.634309	317.241768	-2471.44189	371.856961	290.44983	-2469.57156	371.377193	332.788041	-2492.39141	411.499704	384.424251
1014	5.065	-1691.639329	1524.006473	293.102797	-1861.813185	1552.557404	193.685129	-1833.887238	1534.45243	315.794315	-1928.520007	1423.5322	248.985469	-2131.578693	1148.604499	323.970028	-1840.784384	1286.980213	231.353916	-1876.684541	1352.396508	101.242415	-1940.002921	1176.420084	11.642799	-1899.172566	1151.054276	18.737155	-1938.928394	1108.793129	0.681957	-1939.148183	983.518577	-5.26992	-1961.870987	965.555254	60.889844	-1713.892238	944.652958	103.501915	-1714.032731	873.943571	80.933995	-1654.386547	958.396484	69.242226	-1837.366881	1353.517042	397.906878	-1955.40043	1265.441675	522.257372	-1957.203049	1217.720667	518.285181	-2003.861154	1230.15259	555.086529	-2102.97018	1150.538873	604.857358	-2144.394768	1149.517495	548.61051	-2100.688358	885.695766	601.401584	-2151.856779	896.735532	651.011443	-2068.060898	837.424098	659.000513	-2022.391331	907.463123	374.09861	-2178.794417	1068.19775	339.032574	-2203.096826	1043.959414	314.017129	-2182.144057	1034.448907	367.5538	-2140.235138	732.137827	82.77236	-2088.811342	664.578752	73.284217	-2042.355997	676.684188	79.550624	-2100.703514	605.212311	86.087272	-2064.352733	316.094201	143.908205	-2142.086477	298.858585	107.471416	-2106.466906	280.953479	126.649662	-2135.922557	214.458012	172.980058	-2254.392669	104.250333	187.682432	-2332.237808	74.223402	243.244298	-2109.542201	57.20207	241.416707	-2113.196022	53.081397	195.369005	-2026.343303	689.513588	456.140804	-1976.304322	648.007486	448.999814	-1946.847162	655.929056	432.871828	-1983.936161	564.51791	436.031833	-1957.670897	474.807793	409.256664	-2144.822074	429.625046	349.167487	-2220.142387	497.057706	387.518207	-2222.262194	456.000838	364.927762	-2269.223224	453.280721	332.17421	-2356.157329	516.137022	364.355414	-2402.452977	588.542018	319.714174	-2412.953727	363.250805	293.440923	-2409.975035	362.780366	335.451719	-2433.160837	401.72704	387.748776
1015	5.07	-1663.732023	1523.215967	292.943592	-1834.160773	1551.220285	193.642723	-1806.07277	1532.940096	315.627163	-1900.792181	1421.047924	248.396001	-2101.910607	1144.069853	324.174964	-1811.226558	1285.094785	231.93198	-1847.423556	1351.488019	102.06962	-1898.863732	1172.902391	13.341573	-1856.357412	1150.282916	20.970876	-1893.02269	1105.390872	2.861236	-1883.011853	979.987404	-1.794978	-1904.719274	960.473565	64.055302	-1656.615877	964.285956	109.695641	-1649.639959	893.792704	87.626541	-1598.367891	983.381131	75.53753	-1810.053742	1353.118326	398.387334	-1931.445552	1270.415405	523.219179	-1934.389724	1222.459072	520.319545	-1981.348498	1237.332402	555.90912	-2082.778805	1161.683058	606.047668	-2124.780469	1163.174312	550.425152	-2096.970878	897.513779	602.662558	-2147.33819	911.77642	652.821796	-2066.862245	847.562671	659.786141	-1991.393225	903.309917	370.614888	-2148.66593	1064.524377	339.823088	-2173.305248	1040.235444	315.128354	-2151.35394	1030.697715	368.292512	-2118.770453	727.128152	83.858922	-2070.061054	657.638672	74.156784	-2023.074664	667.803468	79.204934	-2083.778744	598.883591	87.840495	-2056.132377	309.463303	145.284497	-2134.494295	294.878325	109.056413	-2099.504555	275.784818	128.172972	-2131.19304	210.508895	174.842634	-2253.744752	105.020384	189.231167	-2332.21771	75.919334	244.725926	-2109.509568	56.984673	241.986421	-2113.448892	53.196957	195.89988	-1984.857279	692.391763	453.989614	-1932.698096	653.909711	446.421901	-1903.990702	663.442867	429.782668	-1935.706626	570.215072	433.12447	-1904.717927	482.38956	405.975322	-2090.30817	430.397604	347.705694	-2167.532489	494.611852	387.351125	-2168.404919	453.795782	364.746758	-2215.595809	449.361745	332.553731	-2304.113676	508.435159	366.091908	-2355.444029	578.482664	322.534409	-2353.601982	353.309892	296.165556	-2349.661259	352.826307	337.845268	-2373.431133	390.384434	390.881236
